<?xml version="1.0" encoding="UTF-8" standalone="no"?>
<!-- Created with Inkscape (http://www.inkscape.org/) -->

<svg
   width="32"
   height="32"
   viewBox="0 0 32 32"
   version="1.1"
   id="svg1"
   xml:space="preserve"
   inkscape:version="1.3.2 (091e20e, 2023-11-25, custom)"
   sodipodi:docname="subscribeStampWithWaves.svg"
   inkscape:export-filename="subscribeStamp.svg"
   inkscape:export-xdpi="192"
   inkscape:export-ydpi="192"
   xmlns:inkscape="http://www.inkscape.org/namespaces/inkscape"
   xmlns:sodipodi="http://sodipodi.sourceforge.net/DTD/sodipodi-0.dtd"
   xmlns:xlink="http://www.w3.org/1999/xlink"
   xmlns="http://www.w3.org/2000/svg"
   xmlns:svg="http://www.w3.org/2000/svg">
  <sodipodi:namedview
   id="namedview1"
   pagecolor="#505050"
   bordercolor="#ffffff"
   borderopacity="1"
   inkscape:showpageshadow="0"
   inkscape:pageopacity="0"
   inkscape:pagecheckerboard="1"
   inkscape:deskcolor="#d1d1d1"
   inkscape:document-units="px"
   inkscape:zoom="8"
   inkscape:cx="-0.625"
   inkscape:cy="-9.5625"
   inkscape:window-width="2560"
   inkscape:window-height="1377"
   inkscape:window-x="-8"
   inkscape:window-y="-8"
   inkscape:window-maximized="1"
   inkscape:current-layer="layer1"
   showgrid="true"><inkscape:grid
     id="grid1"
     units="px"
     originx="0"
     originy="0"
     spacingx="1"
     spacingy="1"
     empcolor="#3f3fff"
     empopacity="0.25098039"
     color="#3f3fff"
     opacity="0.1254902"
     empspacing="5"
     dotted="false"
     gridanglex="30"
     gridanglez="30"
     visible="true" /></sodipodi:namedview>
  <defs
   id="defs1"><inkscape:path-effect
     effect="bspline"
     id="path-effect18"
     is_visible="true"
     lpeversion="1.3"
     weight="33.333333"
     steps="2"
     helper_size="0"
     apply_no_weight="true"
     apply_with_weight="true"
     only_selected="false"
     uniform="false" /><inkscape:path-effect
     effect="bspline"
     id="path-effect16"
     is_visible="true"
     lpeversion="1.3"
     weight="33.333333"
     steps="2"
     helper_size="0"
     apply_no_weight="true"
     apply_with_weight="true"
     only_selected="false"
     uniform="false" /><inkscape:path-effect
     effect="bspline"
     id="path-effect14"
     is_visible="true"
     lpeversion="1.3"
     weight="33.333333"
     steps="2"
     helper_size="0"
     apply_no_weight="true"
     apply_with_weight="true"
     only_selected="false"
     uniform="false" /><inkscape:path-effect
     effect="bspline"
     id="path-effect12"
     is_visible="true"
     lpeversion="1.3"
     weight="33.333333"
     steps="2"
     helper_size="0"
     apply_no_weight="true"
     apply_with_weight="true"
     only_selected="false"
     uniform="false" /><inkscape:path-effect
     effect="bspline"
     id="path-effect10"
     is_visible="true"
     lpeversion="1.3"
     weight="33.333333"
     steps="2"
     helper_size="0"
     apply_no_weight="true"
     apply_with_weight="true"
     only_selected="false"
     uniform="false" /><inkscape:path-effect
     effect="bspline"
     id="path-effect9"
     is_visible="true"
     lpeversion="1.3"
     weight="33.333333"
     steps="2"
     helper_size="0"
     apply_no_weight="true"
     apply_with_weight="true"
     only_selected="false"
     uniform="false" /><inkscape:path-effect
     effect="bspline"
     id="path-effect8"
     is_visible="true"
     lpeversion="1.3"
     weight="33.333333"
     steps="2"
     helper_size="0"
     apply_no_weight="true"
     apply_with_weight="true"
     only_selected="false"
     uniform="false" /><inkscape:path-effect
     effect="bspline"
     id="path-effect7"
     is_visible="true"
     lpeversion="1.3"
     weight="33.333333"
     steps="2"
     helper_size="0"
     apply_no_weight="true"
     apply_with_weight="true"
     only_selected="false"
     uniform="false" /><inkscape:path-effect
     effect="skeletal"
     id="path-effect6"
     is_visible="true"
     lpeversion="1"
     pattern="M 0,18.867925 C 0,8.4528302 8.4528302,0 18.867925,0 c 10.415094,0 18.867924,8.4528302 18.867924,18.867925 0,10.415094 -8.45283,18.867924 -18.867924,18.867924 C 8.4528302,37.735849 0,29.283019 0,18.867925 Z"
     copytype="single_stretched"
     prop_scale="1"
     scale_y_rel="false"
     spacing="0"
     normal_offset="0"
     tang_offset="0"
     prop_units="false"
     vertical_pattern="false"
     hide_knot="false"
     fuse_tolerance="0" /><inkscape:path-effect
     effect="bspline"
     id="path-effect5"
     is_visible="true"
     lpeversion="1.3"
     weight="33.333333"
     steps="2"
     helper_size="0"
     apply_no_weight="true"
     apply_with_weight="true"
     only_selected="false"
     uniform="false" /><inkscape:path-effect
     effect="spiro"
     id="path-effect4"
     is_visible="true"
     lpeversion="1" /><inkscape:path-effect
     effect="spiro"
     id="path-effect3"
     is_visible="true"
     lpeversion="1" /></defs>
  <g
   inkscape:label="Layer 1"
   inkscape:groupmode="layer"
   id="layer1">
    
    <circle
   style="fill:none;stroke:#000000;stroke-opacity:0.0272232"
   id="path1"
   cx="-10.071508"
   cy="-20.262396"
   r="10.020782"
   transform="rotate(161.42987)" />
    <circle
   style="fill:none;stroke:#000000;stroke-width:0.804794;stroke-linecap:round;stroke-miterlimit:0;stroke-dasharray:none;stroke-opacity:1"
   id="path1-3"
   cx="-10.07151"
   cy="-20.262396"
   r="15.459769"
   transform="rotate(161.42987)" />
    <path
   id="path1-3-6"
   style="fill:none;stroke:#000000;stroke-width:0.491845;stroke-linecap:round;stroke-miterlimit:0;stroke-dasharray:none;stroke-opacity:1"
   d="m -0.92601063,-22.634596 a 9.4481478,9.4481478 0 0 1 0.30264809,2.3722 v 0 a 9.4481478,9.4481478 0 0 1 -9.44814746,9.448148 9.4481478,9.4481478 0 0 1 -9.448148,-9.448148 9.4481478,9.4481478 0 0 1 3.583806,-7.407901"
   transform="rotate(161.42987)" />
    
    
  <path
   id="path36"
   style="fill:none;stroke:#000000;stroke-width:0.75;stroke-dasharray:none;stroke-opacity:0.800525"
   d="m 39.572047,8.193708 c 2.460311,-1.0953759 4.9155,-1.8412864 7.350871,-1.239116 3.287635,0.8129012 6.539064,4.082383 9.880893,4.091383 3.341829,0.009 6.773892,-3.242418 10.097655,-3.224321 3.323763,0.018096 6.539066,3.30564 9.844767,3.323671 3.3057,0.01803 6.701637,-3.2333868 10.106689,-4.046239 0.580525,-0.1385827 1.161311,-0.206285 1.742311,-0.2151907" /><path
   id="path34"
   style="fill:none;stroke:#000000;stroke-width:0.75;stroke-dasharray:none;stroke-opacity:0.800525"
   d="m 41.710925,15.265175 c 1.74381,-0.574165 3.482899,-0.826182 5.211993,-0.398645 3.287635,0.812901 6.539064,4.082383 9.880893,4.091383 3.341829,0.009 6.773892,-3.242418 10.097655,-3.224321 3.323763,0.0181 6.539066,3.30564 9.844767,3.323671 3.3057,0.01803 6.701637,-3.233387 10.106689,-4.046239 0.580525,-0.138583 1.161311,-0.206285 1.742311,-0.215191" /><path
   id="path32"
   style="fill:none;stroke:#000000;stroke-width:0.75;stroke-dasharray:none;stroke-opacity:0.800525"
   d="m 41.02569,11.387942 c 1.973445,-0.737826 3.941727,-1.123473 5.897228,-0.639955 3.287635,0.812901 6.539064,4.082383 9.880893,4.091383 3.341829,0.009 6.773892,-3.242418 10.097655,-3.224321 3.323763,0.0181 6.539066,3.30564 9.844767,3.323671 3.3057,0.01803 6.701637,-3.233387 10.106689,-4.046239 0.580525,-0.138583 1.161311,-0.206285 1.742311,-0.215191" /><path
   id="path30"
   style="fill:none;stroke:#000000;stroke-width:0.75;stroke-dasharray:none;stroke-opacity:0.800525"
   d="m 41.377465,19.280563 c 1.855564,-0.652891 3.706163,-0.967038 5.545453,-0.512254 3.287635,0.812901 6.539064,4.082383 9.880893,4.091383 3.341829,0.009 6.773892,-3.242418 10.097655,-3.224321 3.323763,0.0181 6.539066,3.30564 9.844767,3.323671 3.3057,0.01803 6.701637,-3.233387 10.106689,-4.046239 0.580519,-0.138581 1.1613,-0.206284 1.742295,-0.21519" /><path
   id="path28"
   style="fill:none;stroke:#000000;stroke-width:0.75;stroke-dasharray:none;stroke-opacity:0.800525"
   d="m 39.454715,24.070083 c 2.499582,-1.123818 4.99412,-1.903355 7.468203,-1.291613 3.287635,0.812901 6.539064,4.082383 9.880893,4.091383 3.341829,0.009 6.773892,-3.242418 10.097655,-3.224321 3.323763,0.0181 6.539066,3.30564 9.844767,3.323671 3.3057,0.01803 6.701637,-3.233387 10.106689,-4.046239 0.580525,-0.138583 1.161311,-0.206285 1.742311,-0.215191" /><path
   id="path28-8"
   style="fill:none;stroke:#000000;stroke-width:0.285902;stroke-dasharray:none;stroke-opacity:0.800525"
   d="m 6.4369607,28.990564 c 0.9528496,-0.428404 1.9037762,-0.725567 2.8469067,-0.492368 1.2532586,0.30988 2.4927146,1.556219 3.7666326,1.55965 1.273917,0.0035 2.582233,-1.236022 3.849263,-1.229123 1.267031,0.0069 2.492716,1.260122 3.752861,1.266995 1.260145,0.0069 2.554689,-1.232579 3.852707,-1.54244 0.221298,-0.05283 0.442697,-0.07864 0.664176,-0.08203 M 7.1699191,27.164781 c 0.7073487,-0.248885 1.412804,-0.368639 2.1139483,-0.195273 1.2532586,0.30988 2.4927146,1.556219 3.7666326,1.559649 1.273917,0.0035 2.582233,-1.236021 3.849263,-1.229122 1.267031,0.0069 2.492716,1.260121 3.752861,1.266996 1.260145,0.0069 2.554689,-1.23258 3.852707,-1.542442 0.221296,-0.05283 0.442692,-0.07864 0.664169,-0.08203 M 7.0358215,24.156085 c 0.7522854,-0.281263 1.5026016,-0.428273 2.2480459,-0.243953 1.2532586,0.30988 2.4927146,1.556219 3.7666326,1.559649 1.273917,0.0035 2.582233,-1.236021 3.849263,-1.229122 1.267031,0.0069 2.492716,1.260122 3.752861,1.266996 1.260145,0.0069 2.554689,-1.23258 3.852707,-1.542442 0.221298,-0.05283 0.442697,-0.07863 0.664176,-0.08203 M 7.2970356,25.6341 c 0.6647472,-0.218874 1.3276947,-0.314944 1.9868318,-0.151965 1.2532586,0.309881 2.4927146,1.55622 3.7666326,1.55965 1.273917,0.0035 2.582233,-1.236021 3.849263,-1.229122 1.267031,0.0069 2.492716,1.260121 3.752861,1.266994 1.260145,0.0069 2.554689,-1.232578 3.852707,-1.54244 0.221298,-0.05283 0.442697,-0.07863 0.664176,-0.08203 M 6.4816881,22.938431 c 0.9378798,-0.417561 1.8738056,-0.701905 2.8021793,-0.472356 1.2532586,0.309881 2.4927146,1.55622 3.7666326,1.55965 1.273917,0.0035 2.582233,-1.236021 3.849263,-1.229122 1.267031,0.0069 2.492716,1.260121 3.752861,1.266994 1.260145,0.0069 2.554689,-1.232578 3.852707,-1.54244 0.221298,-0.05283 0.442697,-0.07864 0.664176,-0.08203" /><text
   xml:space="preserve"
   style="font-size:5.33333px;line-height:1.25;font-family:'Courier New';-inkscape-font-specification:'Courier New';letter-spacing:0px;word-spacing:0px"
   id="text37"
   transform="matrix(1.0833476,0,0,1.0833476,-1.3353063,-1.030038)"><textPath
     xlink:href="#path1-3-6"
     id="textPath37"
     style="font-style:normal;font-variant:normal;font-weight:bold;font-stretch:normal;font-size:6.66667px;font-family:'Courier New';-inkscape-font-specification:'Courier New, Bold';font-variant-ligatures:normal;font-variant-caps:normal;font-variant-numeric:normal;font-variant-east-asian:normal">SLOW GLOBE</textPath></text><path
   d="m 18.8885,17.325 c 0.053,-0.43725 0.09275,-0.8745 0.09275,-1.325 0,-0.4505 -0.03975,-0.88775 -0.09275,-1.325 h 2.23925 C 21.23375,15.099 21.3,15.542875 21.3,16 c 0,0.457125 -0.06625,0.901 -0.17225,1.325 m -3.411875,3.6835 c 0.3975,-0.735375 0.70225,-1.530375 0.91425,-2.3585 H 20.5845 c -0.636,1.093125 -1.649625,1.941125 -2.868625,2.3585 M 17.55025,17.325 h -3.1005 c -0.06625,-0.43725 -0.106,-0.8745 -0.106,-1.325 0,-0.4505 0.03975,-0.894375 0.106,-1.325 h 3.1005 c 0.05963,0.430625 0.106,0.8745 0.106,1.325 0,0.4505 -0.04638,0.88775 -0.106,1.325 M 16,21.2735 C 15.450125,20.4785 15.00625,19.597375 14.734625,18.65 h 2.53075 C 16.99375,19.597375 16.549875,20.4785 16,21.2735 M 13.35,13.35 h -1.9345 c 0.629375,-1.09975 1.649625,-1.94775 2.862,-2.3585 C 13.88,11.726875 13.581875,12.521875 13.35,13.35 m -1.9345,5.3 H 13.35 c 0.231875,0.828125 0.53,1.623125 0.9275,2.3585 -1.212375,-0.417375 -2.232625,-1.265375 -2.862,-2.3585 M 10.87225,17.325 C 10.76625,16.901 10.7,16.457125 10.7,16 c 0,-0.457125 0.06625,-0.901 0.17225,-1.325 h 2.23925 c -0.053,0.43725 -0.09275,0.8745 -0.09275,1.325 0,0.4505 0.03975,0.88775 0.09275,1.325 M 16,10.719875 c 0.549875,0.795 0.99375,1.68275 1.265375,2.630125 h -2.53075 C 15.00625,12.402625 15.450125,11.514875 16,10.719875 M 20.5845,13.35 h -1.954375 c -0.212,-0.828125 -0.51675,-1.623125 -0.91425,-2.3585 1.219,0.417375 2.232625,1.25875 2.868625,2.3585 M 16,9.375 C 12.336375,9.375 9.375,12.35625 9.375,16 A 6.625,6.625 0 0 0 16,22.625 6.625,6.625 0 0 0 22.625,16 6.625,6.625 0 0 0 16,9.375 Z"
   id="path1-6"
   style="stroke-width:0.5;stroke-dasharray:none;fill:#000000;fill-opacity:1" /></g>
</svg>
