<?xml version="1.0" encoding="UTF-8" standalone="no"?>
<!-- Created with Inkscape (http://www.inkscape.org/) -->

<svg width="32" height="32" viewBox="0 0 32 32" version="1.1" id="svg1" xml:space="preserve" inkscape:version="1.3.2 (091e20e, 2023-11-25, custom)" sodipodi:docname="subscribeStamp.svg" inkscape:export-filename="subscribeStamp.svg" inkscape:export-xdpi="192" inkscape:export-ydpi="192"
  xmlns:inkscape="http://www.inkscape.org/namespaces/inkscape"
  xmlns:sodipodi="http://sodipodi.sourceforge.net/DTD/sodipodi-0.dtd"
  xmlns="http://www.w3.org/2000/svg"
  xmlns:svg="http://www.w3.org/2000/svg">
  <sodipodi:namedview id="namedview1" pagecolor="#505050" bordercolor="#ffffff" borderopacity="1" inkscape:showpageshadow="0" inkscape:pageopacity="0" inkscape:pagecheckerboard="1" inkscape:deskcolor="#d1d1d1" inkscape:document-units="px" inkscape:zoom="18.453125" inkscape:cx="-4.0643522" inkscape:cy="8.1016088" inkscape:window-width="2560" inkscape:window-height="1377" inkscape:window-x="-8" inkscape:window-y="-8" inkscape:window-maximized="1" inkscape:current-layer="layer1" />
  <defs id="defs1" />
  <g inkscape:label="Layer 1" inkscape:groupmode="layer" id="layer1">
    <path style="font-weight:bold;font-size:7.06667px;line-height:1.25;font-family:'Courier New';-inkscape-font-specification:'Courier New, Bold';letter-spacing:0px;word-spacing:0px" d="m 5.9801715,18.171481 q 0.1201734,0.08019 0.1576142,0.13499 0.037054,0.05138 0.046346,0.133664 0.018198,0.161151 -0.076864,0.272587 -0.098878,0.108394 -0.3491754,0.136659 l -0.4731648,0.05343 q -0.2537261,0.02865 -0.3708579,-0.05535 -0.1209478,-0.08704 -0.1391456,-0.248194 -0.013939,-0.123434 0.041915,-0.21308 0.055466,-0.09308 0.2047256,-0.155072 0.1458307,-0.06161 0.1952698,-0.115807 0.095062,-0.111436 0.1761297,-0.377552 0.081068,-0.266116 0.046995,-0.567844 -0.053045,-0.469736 -0.3065557,-0.746685 -0.155403,-0.176908 -0.3508406,-0.154839 -0.1302918,0.01471 -0.2329858,0.120066 -0.1061228,0.105741 -0.1579365,0.323411 -0.035944,0.142957 -0.071271,0.629618 -0.041243,0.588029 -0.1588093,0.899936 -0.117566,0.311907 -0.3725051,0.514319 -0.2549391,0.202411 -0.573811,0.238419 -0.5040234,0.05692 -0.9288077,-0.322226 -0.428213,-0.378756 -0.5044888,-1.054216 -0.030588,-0.27087 0.00519,-0.507564 0.03196,-0.239736 0.1340987,-0.442255 -0.1492079,-0.122049 -0.1646954,-0.259198 -0.017423,-0.154293 0.081455,-0.262687 0.095062,-0.111436 0.3453596,-0.139701 l 0.5280244,-0.05963 q 0.2537261,-0.02865 0.3746739,0.05839 0.1171318,0.084 0.1345553,0.238294 0.014713,0.130292 -0.053307,0.235202 -0.04977,0.08201 -0.2203765,0.139476 -0.1706062,0.05746 -0.2394561,0.124269 -0.1190633,0.114147 -0.1857535,0.32308 -0.06669,0.208933 -0.037264,0.469517 0.042978,0.380589 0.2464388,0.583322 0.1996452,0.199693 0.3916541,0.17801 0.1302918,-0.01471 0.2436592,-0.117799 0.1095515,-0.106127 0.1583796,-0.288736 0.034838,-0.121997 0.08034,-0.672311 0.045115,-0.553742 0.1394544,-0.856081 0.093952,-0.305768 0.3431394,-0.528365 0.2491872,-0.222596 0.6229188,-0.2648 0.521167,-0.05885 0.8746105,0.272788 0.4664282,0.440417 0.5516093,1.194738 0.032911,0.291442 -0.00773,0.5773 -0.0376,0.282042 -0.1487514,0.5585 z m -2.3342429,-7.838726 1.9086576,0.613239 q 0.6241737,0.200544 0.9164932,0.790986 0.293375,0.587157 0.090721,1.217901 -0.1002716,0.312087 -0.2973419,0.553206 -0.1992999,0.236779 -0.4835509,0.388275 -0.2831954,0.148212 -0.5522073,0.195877 -0.272297,0.04661 -0.6599418,-0.07794 l -1.9086575,-0.61324 q -0.068607,0.213533 -0.1965957,0.284763 -0.1279888,0.07123 -0.2758194,0.02373 -0.1511158,-0.04855 -0.2103791,-0.179945 -0.059263,-0.131393 0.019899,-0.377777 l 0.2806417,-0.884754 q 0.078106,-0.2431 0.2060951,-0.314329 0.1257591,-0.07557 0.2768749,-0.02702 0.1511157,0.04855 0.2126087,0.184286 0.059263,0.131392 -0.018843,0.374491 l -0.078106,0.2431 1.9677899,0.632238 q 0.3022315,0.0971 0.6156926,-0.07762 0.3112315,-0.179071 0.4252244,-0.533864 0.075995,-0.236529 0.030797,-0.479379 Q 5.8707817,12.026133 5.6994682,11.826121 5.5911654,11.700718 5.397343,11.638444 l -1.9677898,-0.632239 -0.078106,0.2431 q -0.078106,0.243099 -0.2038654,0.318669 -0.1279889,0.07123 -0.2791046,0.02268 -0.1511158,-0.04855 -0.2103791,-0.179945 -0.061493,-0.135733 0.016613,-0.378832 L 2.9619231,10.14923 q 0.078106,-0.2430988 0.20281,-0.315384 0.1257592,-0.07557 0.2768749,-0.027018 0.1478306,0.047497 0.2103791,0.1799452 0.062548,0.1324485 -0.00606,0.3459815 z M 7.0682829,9.884226 5.013917,8.0301399 4.9399385,8.1121096 Q 4.7688633,8.3016646 4.6231613,8.3189031 4.4772096,8.3312682 4.3593781,8.2249241 4.2415466,8.1185801 4.2414898,7.9744407 4.2411833,7.825428 4.4122585,7.635873 L 5.6005381,6.3192345 Q 6.0259145,5.8479087 6.5486792,5.799133 7.0688824,5.7480455 7.4300615,6.0740132 7.6016856,6.2289057 7.6927097,6.4319039 7.7837338,6.6349022 7.7892846,6.8862559 8.162102,6.7718712 8.4728709,6.8292393 8.7833901,6.8817339 9.0344224,7.108293 9.2342235,7.2886156 9.3249336,7.5331625 9.3954653,7.7176661 9.3844625,7.88436 9.3741445,8.112096 9.2722312,8.3640703 9.1677563,8.6137328 8.9111434,8.8980652 L 7.5194229,10.44012 Q 7.3483476,10.629675 7.2026456,10.646914 7.0566939,10.659279 6.9388625,10.552935 6.8235925,10.448903 6.8258475,10.302202 6.825541,10.153189 6.9943044,9.9661957 Z M 6.2511847,8.1939462 6.771346,7.6175966 Q 7.0510772,7.3076487 7.0797687,6.9617029 7.0995837,6.728594 6.943329,6.5875725 6.8050051,6.4627338 6.5846397,6.5008999 6.3617128,6.5367542 6.1050999,6.8210866 L 5.4878418,7.5050214 Z M 7.5422077,9.3591075 8.3605948,8.4523176 Q 8.6495733,8.1321234 8.6726991,7.9159465 8.6911368,7.7513147 8.5579361,7.6310997 8.3991197,7.4877663 8.0674158,7.5462963 7.7357118,7.6048262 7.4028086,7.9736899 L 6.7763032,8.6678709 Z M 10.957083,7.0735647 q -0.04098,0.1385363 -0.08223,0.1905345 -0.03809,0.050612 -0.11393,0.08387 -0.148521,0.065131 -0.28312,0.00736 -0.132825,-0.06232 -0.233986,-0.2930018 L 10.052588,6.6262407 Q 9.9500418,6.3923986 9.9955641,6.2556365 10.042861,6.1143286 10.191382,6.049198 q 0.113761,-0.049887 0.215931,-0.023105 0.10533,0.025397 0.20877,0.149583 0.102053,0.1210264 0.168466,0.1521863 0.134599,0.057774 0.412786,0.056349 0.278186,-0.00143 0.556268,-0.1233718 0.432924,-0.1898489 0.622318,-0.5140374 0.122917,-0.2008435 0.04393,-0.3809651 -0.05266,-0.1200811 -0.183709,-0.1869466 -0.132437,-0.070025 -0.355685,-0.055015 -0.147188,0.00803 -0.622461,0.1184895 -0.573844,0.1348464 -0.90658,0.1149803 Q 10.01868,5.337479 9.7498176,5.1539646 9.4809556,4.9704502 9.3520801,4.6765676 9.1483737,4.2120434 9.3846238,3.693992 9.6194882,3.1727806 10.242014,2.8997864 q 0.249642,-0.1094749 0.486308,-0.1454402 0.238439,-0.040511 0.462128,-0.00297 0.07236,-0.1786714 0.198758,-0.2341017 0.142201,-0.062359 0.275026,-3.94e-5 0.1346,0.057774 0.23576,0.288456 l 0.213407,0.4866444 q 0.102546,0.2338421 0.05525,0.37515 -0.04552,0.1367621 -0.187723,0.1991212 -0.120081,0.052659 -0.240435,0.018779 -0.09308,-0.023234 -0.198512,-0.1691519 -0.105434,-0.1459181 -0.189641,-0.1918808 -0.1443,-0.079894 -0.363611,-0.081681 -0.219312,-0.00179 -0.459474,0.1035308 -0.350763,0.1538191 -0.484105,0.4082148 -0.1315686,0.24985 -0.053966,0.4268116 0.052659,0.120081 0.1847071,0.1978124 0.133822,0.073186 0.322699,0.065712 0.126841,-0.00288 0.665924,-0.1224784 0.542243,-0.1209889 0.858959,-0.1204715 0.319875,-8.683e-4 0.606312,0.1711715 0.286436,0.1720398 0.437484,0.5164829 0.210635,0.4803244 -0.0014,0.916163 -0.282433,0.5759811 -0.97764,0.8808478 -0.268602,0.1177894 -0.553665,0.1636752 -0.280518,0.04766 -0.577496,0.023417 z m 6.293162,-5.0850933 q 0.06646,-0.08905 0.142817,-0.1331415 0.07981,-0.044057 0.169518,-0.043155 0.155265,0.00156 0.2508,0.1094928 0.09899,0.1079666 0.09642,0.3632923 l -0.006,0.6003606 q -0.0026,0.2553258 -0.103736,0.3647311 -0.09768,0.1059896 -0.252951,0.1044289 -0.141464,-0.00142 -0.226925,-0.081647 -0.08546,-0.080225 -0.12468,-0.2980132 -0.0227,-0.1451574 -0.09436,-0.2252438 -0.139904,-0.1566877 -0.394293,-0.2524137 -0.250939,-0.095691 -0.506265,-0.098258 -0.317432,-0.00319 -0.584496,0.1321524 -0.267064,0.1353432 -0.473756,0.4438282 -0.206692,0.308485 -0.210993,0.7363282 l -0.0046,0.4588963 q -0.0051,0.5106515 0.36062,0.8559471 0.369204,0.3453303 1.028221,0.3519549 0.393339,0.00395 0.666992,-0.1002668 0.15934,-0.060511 0.340597,-0.2415757 0.111521,-0.1093013 0.173939,-0.1397301 0.06245,-0.033879 0.141811,-0.033081 0.141464,0.00142 0.24735,0.109458 0.105886,0.108036 0.104429,0.2529506 -0.0015,0.1449146 -0.148036,0.3090746 -0.212899,0.2394087 -0.54552,0.374093 Q 16.850135,6.0907786 16.311881,6.0853679 15.683917,6.0790554 15.182768,5.8152155 14.777708,5.6041019 14.495803,5.1561283 14.213933,4.7047043 14.21924,4.176801 l 0.0048,-0.4795984 q 0.0055,-0.5520557 0.265661,-1.0256371 0.263597,-0.4769971 0.721645,-0.731195 0.458047,-0.2541978 0.968698,-0.2490646 0.307081,0.00309 0.57203,0.078215 0.268433,0.071712 0.49815,0.2189507 z m 2.96642,3.1607722 -0.373842,0.8079354 0.231733,0.1072262 q 0.231734,0.1072262 0.28679,0.2429597 0.05964,0.134051 -0.007,0.2781015 -0.0652,0.140919 -0.207435,0.1853653 -0.13765,0.042764 -0.369383,-0.064462 L 18.803604,6.2557297 q -0.231733,-0.1072261 -0.29137,-0.2412771 -0.05506,-0.1357335 0.0116,-0.279784 0.0652,-0.140919 0.205986,-0.1822339 0.142231,-0.044446 0.370833,0.061331 l 0.100209,0.046368 1.162099,-2.5114893 -0.100209,-0.046368 Q 20.031016,2.99505 19.971379,2.8609991 q -0.05506,-0.1357336 0.0116,-0.2797841 0.06665,-0.1440505 0.204303,-0.1868143 0.14223,-0.044446 0.373964,0.06278 l 1.451582,0.6754685 q 0.679543,0.3144335 0.895703,0.8250703 0.22074,0.5089543 -0.0024,0.9912103 -0.139104,0.3006272 -0.428941,0.4668741 -0.288388,0.1631155 -0.73064,0.1904017 0.120956,0.2726825 0.223728,0.6586151 0.06146,0.2451515 0.130388,0.7370891 0.244259,0.1130222 0.299364,0.1993518 0.096,0.1622826 0.01486,0.3376484 -0.06521,0.140919 -0.204304,0.1868144 -0.13765,0.042764 -0.369383,-0.064462 L 21.474802,7.4917286 Q 21.252916,5.9252869 20.852367,5.443391 Z m 0.297046,-0.6419643 0.501045,0.2318404 q 0.278706,0.1289612 0.537037,0.14584 0.346528,0.023471 0.504697,-0.055422 0.161301,-0.077444 0.217812,-0.1995741 0.08404,-0.1816289 -0.03911,-0.4249121 -0.121705,-0.2464148 -0.494357,-0.4188461 l -0.73591,-0.3405155 z m 5.916244,2.9213455 -2.091222,1.8124135 0.467792,0.5397544 q 0.16723,0.1929557 0.161668,0.3393243 -6.94e-4,0.146717 -0.12064,0.250671 -0.117337,0.101694 -0.265271,0.08379 -0.143066,-0.01756 -0.310296,-0.210512 L 22.873128,8.6300172 q -0.16723,-0.1929557 -0.166536,-0.3396723 0.0056,-0.1463689 0.125508,-0.2503228 0.117337,-0.101694 0.260404,-0.084137 0.147933,0.017904 0.315163,0.2108598 L 23.87546,8.7064989 25.966682,6.8940854 25.49889,6.3543309 q -0.16723,-0.1929557 -0.166536,-0.3396722 0.0056,-0.146369 0.125508,-0.2503229 0.119945,-0.1039539 0.263011,-0.086397 0.147934,0.017904 0.315164,0.2108599 l 1.39625,1.6163082 q 0.16723,0.1929557 0.164276,0.3370648 -6.95e-4,0.1467165 -0.12064,0.2506704 -0.119945,0.1039539 -0.267879,0.08605 -0.143066,-0.017557 -0.310296,-0.2105122 z m -0.566232,4.1121762 2.651128,-0.79346 -0.03166,-0.105781 q -0.07321,-0.244617 -0.01231,-0.3781 0.06519,-0.131166 0.217254,-0.176676 0.152059,-0.04551 0.275287,0.02926 0.127523,0.07709 0.200735,0.321707 l 0.508527,1.699101 q 0.182041,0.608239 -0.04763,1.080375 -0.226369,0.471146 -0.692465,0.610644 -0.221478,0.06629 -0.442234,0.03871 -0.220756,-0.02758 -0.438474,-0.153307 -0.09576,0.37803 -0.306112,0.61387 -0.206056,0.238157 -0.53001,0.335114 -0.25784,0.07717 -0.513945,0.02776 -0.194311,-0.03549 -0.331076,-0.131424 -0.189294,-0.127035 -0.351759,-0.34494 -0.159158,-0.218895 -0.268976,-0.585821 l -0.59559,-1.989999 q -0.07321,-0.244617 -0.01231,-0.3781 0.06519,-0.131166 0.217253,-0.176676 0.148754,-0.04452 0.272971,0.03356 0.127523,0.07709 0.199746,0.318401 z m 1.868862,0.179024 0.222605,0.74377 q 0.119711,0.399983 0.400504,0.604084 0.188956,0.137942 0.3906,0.07759 0.178505,-0.05343 0.260274,-0.261587 0.08507,-0.209151 -0.02474,-0.576078 l -0.264157,-0.882607 z m -1.666045,0.498633 0.350231,1.170199 q 0.123669,0.413205 0.296435,0.545187 0.131142,0.101218 0.303036,0.04977 0.20495,-0.06134 0.327109,-0.375236 0.122158,-0.313895 -0.02031,-0.789908 l -0.268115,-0.89583 z m 1.693088,4.615211 -1.029514,-0.137134 -0.238277,1.788823 0.379655,0.05057 q 0.253103,0.03371 0.346376,0.143606 0.09624,0.113768 0.07528,0.271102 -0.0205,0.153915 -0.142708,0.235104 -0.119242,0.08507 -0.372345,0.05135 l -1.080819,-0.143969 0.43965,-3.300601 q 0.03371,-0.253103 0.144062,-0.349797 0.113313,-0.09282 0.270647,-0.07186 0.153914,0.0205 0.235104,0.142709 0.08461,0.122662 0.05135,0.372345 l -0.01458,0.10945 2.743091,0.365388 0.01458,-0.10945 q 0.03371,-0.253103 0.144062,-0.349796 0.113312,-0.09282 0.270647,-0.07186 0.157334,0.02096 0.238979,0.139744 0.08461,0.122662 0.0509,0.375765 l -0.422569,3.146232 -1.067137,-0.142146 q -0.249683,-0.03326 -0.346376,-0.143607 -0.09327,-0.109892 -0.07232,-0.267226 0.02096,-0.157335 0.1402,-0.2424 0.118786,-0.08164 0.371889,-0.04793 l 0.365974,0.04875 0.217775,-1.63491 -1.012413,-0.134856 -0.08201,0.615656 q 0.273625,0.03645 0.345458,0.09823 0.153472,0.128354 0.127503,0.323312 -0.0205,0.153914 -0.142709,0.235103 -0.119242,0.08507 -0.372345,0.05135 L 27.529498,18.1432 q -0.22916,-0.03053 -0.300538,-0.09573 -0.146176,-0.130863 -0.121574,-0.31556 0.02597,-0.194958 0.207688,-0.278664 0.0855,-0.04083 0.362547,-0.0039 z" id="text1" aria-label="SUBSCRIBE" />
    <circle style="fill:none;stroke:#362f3b;stroke-width:0.521655;stroke-linecap:round;stroke-miterlimit:0;stroke-dasharray:none;stroke-opacity:0.02722323" id="path1" cx="-10.071508" cy="-20.262396" r="10.020782" transform="rotate(161.42987)" />
    <circle style="fill:none;stroke:#362f3b;stroke-width:0.804794;stroke-linecap:round;stroke-miterlimit:0;stroke-dasharray:none" id="path1-3" cx="-10.07151" cy="-20.262396" r="15.459769" transform="rotate(161.42987)" />
    <path id="path1-3-6" style="fill:none;stroke:#362f3b;stroke-width:0.491845;stroke-linecap:round;stroke-miterlimit:0;stroke-dasharray:none" d="M -0.92601063 -22.634596 A 9.4481478 9.4481478 0 0 1 -0.62336254 -20.262396 L -0.62336254 -20.262396 A 9.4481478 9.4481478 0 0 1 -10.07151 -10.814248 A 9.4481478 9.4481478 0 0 1 -19.519658 -20.262396 A 9.4481478 9.4481478 0 0 1 -15.935852 -27.670297 " transform="rotate(161.42987)" />
    <path style="font-weight:bold;font-size:5.33333px;line-height:1.25;font-family:'Courier New';-inkscape-font-specification:'Courier New, Bold';letter-spacing:0px;word-spacing:0px" d="m 7.750005,23.606226 v 1.51302 q 0,0.494792 -0.3567706,0.841146 -0.3541665,0.346353 -0.8541662,0.346353 -0.2473957,0 -0.4661455,-0.08594 Q 5.856777,26.132266 5.6822979,25.962996 5.510423,25.793725 5.4140689,25.611433 5.3177148,25.426538 5.3177148,25.119246 v -1.51302 q -0.1692708,0 -0.2499999,-0.07552 -0.080729,-0.07552 -0.080729,-0.192708 0,-0.119791 0.080729,-0.192708 0.080729,-0.07292 0.2760415,-0.07292 l 0.7005204,-0.0026 q 0.1927083,0 0.2734374,0.07552 0.083333,0.07292 0.083333,0.192708 0,0.119792 -0.083333,0.195313 -0.080729,0.07292 -0.2734374,0.07292 H 5.8515686 v 1.559895 q 0,0.239583 0.1979166,0.424479 0.2005207,0.182292 0.4817705,0.182292 0.1874999,0 0.3515623,-0.08854 0.1640624,-0.08854 0.268229,-0.257812 0.065104,-0.106771 0.065104,-0.260417 V 23.606226 H 7.0234429 q -0.1927082,0 -0.2760415,-0.07292 -0.080729,-0.07552 -0.080729,-0.195313 0,-0.119791 0.080729,-0.192708 0.083333,-0.07552 0.2760415,-0.07552 l 0.7005204,0.0026 q 0.1927083,0 0.2734374,0.07292 0.083333,0.07292 0.083333,0.192708 0,0.117188 -0.080729,0.192708 -0.080729,0.07552 -0.2499998,0.07552 z m 1.6718739,1.539062 v 0.549479 h 0.5390622 q 0.1927079,0 0.2734369,0.07552 0.08333,0.07292 0.08333,0.192709 0,0.117187 -0.08333,0.192708 -0.08073,0.07292 -0.2734369,0.07292 H 8.8046918 q -0.1927082,0 -0.2760415,-0.07292 -0.080729,-0.07552 -0.080729,-0.195312 0,-0.117188 0.083333,-0.190105 0.083333,-0.07552 0.2734374,-0.07552 h 0.083333 v -2.088541 h -0.083333 q -0.1927082,0 -0.2760415,-0.07292 -0.080729,-0.07552 -0.080729,-0.195313 0,-0.119791 0.080729,-0.192708 0.083333,-0.07552 0.2760415,-0.07552 l 1.2291662,0.0026 q 0.541666,0 0.85677,0.296875 0.317708,0.294271 0.317708,0.71875 0,0.234375 -0.106771,0.442708 -0.08073,0.15625 -0.270833,0.309896 -0.1875,0.151041 -0.385416,0.229166 -0.195313,0.07552 -0.518229,0.07552 z m 0,-0.533854 h 0.4947914 q 0.3489577,0 0.5520827,-0.15625 0.205729,-0.158854 0.205729,-0.380208 0,-0.1875 -0.166666,-0.328125 -0.164063,-0.140625 -0.471354,-0.140625 H 9.4218789 Z m 2.3151031,1.083333 v -2.088541 q -0.169271,-0.0026 -0.25,-0.07552 -0.08073,-0.07552 -0.08073,-0.192708 0,-0.119791 0.08073,-0.192708 0.08333,-0.07552 0.276041,-0.07552 l 1.117187,0.0026 q 0.260417,0 0.507812,0.09635 0.25,0.09635 0.401042,0.244791 0.114583,0.111979 0.236979,0.307292 0.125,0.195312 0.1875,0.38802 0.0625,0.192708 0.0625,0.471354 v 0.255208 q 0,0.338542 -0.114584,0.601562 -0.114583,0.260417 -0.302083,0.427083 -0.184896,0.164063 -0.348958,0.242188 -0.260416,0.122396 -0.674479,0.122396 h -1.072916 q -0.192708,0 -0.276041,-0.07292 -0.08073,-0.07552 -0.08073,-0.195312 0,-0.117188 0.08073,-0.192709 0.08333,-0.07552 0.25,-0.07292 z m 0.533853,0 h 0.567708 q 0.317709,0 0.479167,-0.09115 0.210937,-0.119792 0.317708,-0.304687 0.106771,-0.184896 0.106771,-0.479167 v -0.252604 q 0,-0.252604 -0.09635,-0.442708 -0.151042,-0.296875 -0.341146,-0.40625 -0.1875,-0.111979 -0.471354,-0.111979 h -0.5625 z m 4.513019,-0.325521 H 15.48698 l -0.130209,0.325521 h 0.130209 q 0.192708,0 0.273437,0.07552 0.08333,0.07292 0.08333,0.192709 0,0.117187 -0.08333,0.192708 -0.08073,0.07292 -0.273437,0.07292 h -0.71875 q -0.192708,0 -0.273437,-0.07292 -0.08333,-0.07552 -0.08333,-0.195312 0,-0.119792 0.08594,-0.195313 0.08594,-0.07552 0.283854,-0.07031 l 0.838541,-2.088541 h -0.348958 q -0.192708,0 -0.276042,-0.07292 -0.08073,-0.07552 -0.08073,-0.195313 0,-0.119791 0.08073,-0.192708 0.08333,-0.07552 0.276042,-0.07552 l 1.153645,0.0026 1.062499,2.622395 q 0.1875,0 0.247396,0.04167 0.119792,0.08594 0.119792,0.226563 0,0.117187 -0.08073,0.192708 -0.08073,0.07292 -0.273438,0.07292 H 16.78125 q -0.192709,0 -0.276042,-0.07292 -0.08073,-0.07552 -0.08073,-0.195312 0,-0.117188 0.08073,-0.190105 0.08333,-0.07552 0.276042,-0.07552 h 0.130208 z M 16.5625,24.835392 16.132812,23.778101 15.700521,24.835392 Z m 3.028643,-1.229166 v 2.088541 h 0.359375 q 0.192708,0 0.273438,0.07552 0.08333,0.07292 0.08333,0.192709 0,0.117187 -0.08333,0.192708 -0.08073,0.07292 -0.273438,0.07292 h -1.249999 q -0.192708,0 -0.276042,-0.07292 -0.08073,-0.07552 -0.08073,-0.195312 0,-0.117188 0.08073,-0.190105 0.08333,-0.07552 0.276042,-0.07552 h 0.356771 v -2.088541 h -0.578125 v 0.505208 q 0,0.192709 -0.07552,0.276042 -0.07292,0.08073 -0.192708,0.08073 -0.117187,0 -0.192708,-0.08073 -0.07292,-0.08333 -0.07292,-0.276042 v -1.041666 l 2.765623,0.0026 v 1.039062 q 0,0.192709 -0.07552,0.276042 -0.07292,0.08073 -0.192709,0.08073 -0.117187,0 -0.192708,-0.08073 -0.07292,-0.08333 -0.07292,-0.276042 v -0.505208 z m 2.393228,1.304687 v 0.783854 h 1.361978 v -0.289063 q 0,-0.192708 0.07292,-0.273437 0.07552,-0.08333 0.195312,-0.08333 0.117188,0 0.190104,0.08333 0.07552,0.08073 0.07552,0.273437 v 0.822917 h -2.513019 q -0.192708,0 -0.276042,-0.07292 -0.08073,-0.07552 -0.08073,-0.195312 0,-0.117188 0.08333,-0.190105 0.08333,-0.07552 0.273438,-0.07552 h 0.08333 v -2.088541 h -0.08333 q -0.192708,0 -0.276042,-0.07292 -0.08073,-0.07552 -0.08073,-0.195313 0,-0.119791 0.08073,-0.192708 0.08333,-0.07552 0.276042,-0.07552 l 2.395832,0.0026 v 0.8125 q 0,0.190104 -0.07292,0.273437 -0.07292,0.08073 -0.192708,0.08073 -0.119792,0 -0.195313,-0.08073 -0.07292,-0.08073 -0.07292,-0.273437 v -0.278646 h -1.244791 v 0.770833 h 0.46875 q 0,-0.208333 0.03906,-0.268229 0.08073,-0.127604 0.229167,-0.127604 0.117187,0 0.190104,0.08333 0.07552,0.08073 0.07552,0.273438 v 0.614583 q 0,0.174479 -0.04167,0.234374 -0.08333,0.122396 -0.223958,0.122396 -0.148438,0 -0.229167,-0.127604 -0.03906,-0.0599 -0.03906,-0.270833 z m 2.968749,1.182291 q -0.07031,0.08333 -0.114584,0.106771 -0.04167,0.02344 -0.104166,0.02344 -0.122396,0 -0.197917,-0.08073 -0.07292,-0.08333 -0.07292,-0.273437 v -0.359375 q 0,-0.192708 0.07292,-0.273437 0.07552,-0.08333 0.197917,-0.08333 0.09375,0 0.15625,0.04948 0.0651,0.04948 0.09896,0.166667 0.03385,0.114583 0.07031,0.15625 0.07552,0.08073 0.268229,0.164062 0.192708,0.08333 0.421874,0.08333 0.356771,0 0.585937,-0.166667 0.145834,-0.101562 0.145834,-0.25 0,-0.09896 -0.07031,-0.184896 -0.07031,-0.08854 -0.229166,-0.145833 -0.104167,-0.03906 -0.466146,-0.106771 -0.4375,-0.08073 -0.661458,-0.195312 -0.223958,-0.114583 -0.354166,-0.322916 -0.130209,-0.208334 -0.130209,-0.450521 0,-0.382812 0.320313,-0.66927 0.320312,-0.289063 0.833333,-0.289063 0.205729,0 0.380208,0.04687 0.177083,0.04427 0.320312,0.138021 0.104167,-0.101562 0.208333,-0.101562 0.117188,0 0.190104,0.08333 0.07552,0.08073 0.07552,0.270833 v 0.401041 q 0,0.192709 -0.07552,0.276042 -0.07292,0.08073 -0.190104,0.08073 -0.09896,0 -0.171875,-0.0599 -0.05729,-0.04427 -0.08594,-0.177083 -0.02865,-0.132812 -0.07292,-0.190104 -0.07552,-0.09896 -0.226562,-0.166667 -0.151042,-0.06771 -0.348958,-0.06771 -0.289063,0 -0.458333,0.135417 -0.166667,0.132812 -0.166667,0.278645 0,0.09896 0.06771,0.192709 0.07031,0.09115 0.203125,0.143229 0.08854,0.03646 0.497396,0.117187 0.411458,0.08073 0.630208,0.177083 0.221354,0.09635 0.367187,0.302084 0.145833,0.205729 0.145833,0.489583 0,0.395833 -0.278645,0.632812 -0.369792,0.312499 -0.942708,0.312499 -0.221354,0 -0.432291,-0.05469 -0.208334,-0.05208 -0.40625,-0.158854 z" id="text2" aria-label="UPDATES" />
    <path d="m 21.485303,19.094545 v 0.609479 H 10.514697 v -0.609479 l 1.218956,-1.218955 v -3.656869 c 0,-1.889382 1.23724,-3.553258 3.04739,-4.089599 0,-0.06094 0,-0.115806 0,-0.1767477 A 1.2189562,1.2189562 0 0 1 16,8.7334175 1.2189562,1.2189562 0 0 1 17.218957,9.9523743 c 0,0.060945 0,0.1158067 0,0.1767477 1.81015,0.536341 3.04739,2.200217 3.04739,4.089599 v 3.656869 l 1.218956,1.218955 m -4.266346,1.218957 A 1.2189562,1.2189562 0 0 1 16,21.532458 1.2189562,1.2189562 0 0 1 14.781043,20.313502" id="path1-2" style="stroke-width:0.609478" />
  </g>
</svg>
